{
  "accessors": [
    {
      "bufferView": 2,
      "componentType": 5126,
      "count": 3612,
      "max": [
        22.640178680419922,
        70.458412170410156,
        72.839134216308594
      ],
      "min": [
        -22.640178680419922,
        -48.285419464111328,
        0.039924860000610352
      ],
      "type": "VEC3"
    },
    {
      "bufferView": 2,
      "byteOffset": 43344,
      "componentType": 5126,
      "count": 3612,
      "max": [
        1,
        0.99999320507049561,
        0.99994778633117676
      ],
      "min": [
        -1,
        -0.99997127056121826,
        -0.99999898672103882
      ],
      "type": "VEC3"
    },
    {
      "bufferView": 3,
      "componentType": 5126,
      "count": 3612,
      "max": [
        1,
        1,
        0.98665571212768555,
        1
      ],
      "min": [
        -1,
        -0.99999994039535522,
        -0.99824243783950806,
        -1
      ],
      "type": "VEC4"
    },
    {
      "bufferView": 1,
      "componentType": 5126,
      "count": 3612,
      "max": [
        0.95924371480941772,
        0.99018955230712891
      ],
      "min": [
        0.019999999552965164,
        0.019999999552965164
      ],
      "type": "VEC2"
    },
    {
      "bufferView": 0,
      "componentType": 5125,
      "count": 17790,
      "max": [
        3611
      ],
      "min": [
        0
      ],
      "type": "SCALAR"
    },
    {
      "bufferView": 2,
      "byteOffset": 86688,
      "componentType": 5126,
      "count": 2632,
      "max": [
        5.5999999046325684,
        16.654741287231445,
        41.406658172607422
      ],
      "min": [
        -5.5999999046325684,
        -5.5999999046325684,
        -1.3303794860839844
      ],
      "type": "VEC3"
    },
    {
      "bufferView": 2,
      "byteOffset": 118272,
      "componentType": 5126,
      "count": 2632,
      "max": [
        1,
        1,
        0.99995899200439453
      ],
      "min": [
        -1,
        -1,
        -0.99992960691452026
      ],
      "type": "VEC3"
    },
    {
      "bufferView": 3,
      "byteOffset": 57792,
      "componentType": 5126,
      "count": 2632,
      "max": [
        0.99992263317108154,
        0.99959379434585571,
        1,
        1
      ],
      "min": [
        -0.99771898984909058,
        -0.99959319829940796,
        -0.99987030029296875,
        -1
      ],
      "type": "VEC4"
    },
    {
      "bufferView": 1,
      "byteOffset": 28896,
      "componentType": 5126,
      "count": 2632,
      "max": [
        0.80110454559326172,
        0.68458837270736694
      ],
      "min": [
        0.40035015344619751,
        0.41809916496276855
      ],
      "type": "VEC2"
    },
    {
      "bufferView": 0,
      "byteOffset": 71160,
      "componentType": 5125,
      "count": 12096,
      "max": [
        2631
      ],
      "min": [
        0
      ],
      "type": "SCALAR"
    }
  ],
  "asset": {
    "extras": {
      "author": "RafaelScopel (https://sketchfab.com/RafaelScopel)",
      "license": "CC-BY-4.0 (http://creativecommons.org/licenses/by/4.0/)",
      "source": "https://sketchfab.com/models/1f517175aa1649e9baa72f964b938448",
      "title": "Genie Lamp"
    },
    "generator": "Sketchfab-3.19.6",
    "version": "2.0"
  },
  "bufferViews": [
    {
      "buffer": 0,
      "byteLength": 119544,
      "byteOffset": 0,
      "name": "floatBufferViews",
      "target": 34963
    },
    {
      "buffer": 0,
      "byteLength": 49952,
      "byteOffset": 119544,
      "byteStride": 8,
      "name": "floatBufferViews",
      "target": 34962
    },
    {
      "buffer": 0,
      "byteLength": 149856,
      "byteOffset": 169496,
      "byteStride": 12,
      "name": "floatBufferViews",
      "target": 34962
    },
    {
      "buffer": 0,
      "byteLength": 99904,
      "byteOffset": 319352,
      "byteStride": 16,
      "name": "floatBufferViews",
      "target": 34962
    }
  ],
  "buffers": [
    {
      "byteLength": 419256,
      "uri": "scene.bin"
    }
  ],
  "images": [
    {
      "uri": "textures/Lampada_baseColor.png"
    },
    {
      "uri": "textures/Lampada_normal.png"
    },
    {
      "uri": "textures/Lampada_metallicRoughness.png"
    }
  ],
  "materials": [
    {
      "doubleSided": true,
      "name": "Lampada",
      "normalTexture": {
        "index": 1,
        "scale": 1,
        "texCoord": 0
      },
      "occlusionTexture": {
        "index": 2,
        "strength": 1,
        "texCoord": 0
      },
      "pbrMetallicRoughness": {
        "baseColorFactor": [
          1,
          1,
          1,
          1
        ],
        "baseColorTexture": {
          "index": 0,
          "texCoord": 0
        },
        "metallicFactor": 1,
        "metallicRoughnessTexture": {
          "index": 2,
          "texCoord": 0
        },
        "roughnessFactor": 0.11
      }
    }
  ],
  "meshes": [
    {
      "name": "Lamp_Lampada_0",
      "primitives": [
        {
          "attributes": {
            "NORMAL": 1,
            "POSITION": 0,
            "TANGENT": 2,
            "TEXCOORD_0": 3
          },
          "indices": 4,
          "material": 0,
          "mode": 4
        }
      ]
    },
    {
      "name": "Lamp_chain_Lampada_0",
      "primitives": [
        {
          "attributes": {
            "NORMAL": 6,
            "POSITION": 5,
            "TANGENT": 7,
            "TEXCOORD_0": 8
          },
          "indices": 9,
          "material": 0,
          "mode": 4
        }
      ]
    }
  ],
  "nodes": [
    {
      "children": [
        1
      ],
      "name": "RootNode (gltf orientation matrix)",
      "rotation": [
        -0.70710678118654746,
        -0,
        -0,
        0.70710678118654757
      ]
    },
    {
      "children": [
        2
      ],
      "matrix": [
        1,
        0,
        0,
        0,
        0,
        0.99998718500137329,
        -0.0050671305507421494,
        0,
        0,
        0.0050671305507421494,
        0.99998718500137329,
        0,
        0,
        -0.18478591740131378,
        -0.055708616971969604,
        1
      ],
      "name": "RootNode (model correction matrix)"
    },
    {
      "children": [
        3
      ],
      "matrix": [
        1,
        0,
        0,
        0,
        0,
        0,
        1,
        0,
        0,
        -1,
        0,
        0,
        0,
        0,
        0,
        1
      ],
      "name": "lamp.fbx"
    },
    {
      "children": [
        4,
        6
      ],
      "name": "RootNode"
    },
    {
      "children": [
        5
      ],
      "matrix": [
        -0.99999999999998868,
        1.2246469849340659e-16,
        -1.5099580265055077e-07,
        0,
        -1.5099580265055077e-07,
        -4.4408920985006262e-16,
        0.99999999999998868,
        0,
        1.2246464555384738e-16,
        1,
        3.3306690738754696e-16,
        0,
        0,
        0,
        0,
        1
      ],
      "name": "Lamp"
    },
    {
      "mesh": 0,
      "name": "Lamp_Lampada_0"
    },
    {
      "children": [
        7
      ],
      "matrix": [
        1,
        0,
        0,
        0,
        0,
        -0.7071067513842253,
        -0.70710681098886841,
        0,
        0,
        0.70710681098886841,
        -0.7071067513842253,
        0,
        0,
        42.518627166748047,
        -8.9760093688964844,
        1
      ],
      "name": "Lamp_chain"
    },
    {
      "mesh": 1,
      "name": "Lamp_chain_Lampada_0"
    }
  ],
  "samplers": [
    {
      "magFilter": 9729,
      "minFilter": 9987,
      "wrapS": 10497,
      "wrapT": 10497
    }
  ],
  "scene": 0,
  "scenes": [
    {
      "name": "OSG_Scene",
      "nodes": [
        0
      ]
    }
  ],
  "textures": [
    {
      "sampler": 0,
      "source": 0
    },
    {
      "sampler": 0,
      "source": 1
    },
    {
      "sampler": 0,
      "source": 2
    }
  ]
}

